<svg xmlns="http://www.w3.org/2000/svg" viewBox="-1 -1 26 26" width="24" height="24" fill="currentColor">
  <path d="M12 .5a12 12 0 0 0-3.79 23.39c.6.11.82-.26.82-.58v-2.03c-3.34.73-4.04-1.42-4.04-1.42-.55-1.38-1.33-1.75-1.33-1.75-1.09-.74.08-.73.08-.73 1.2.08 1.84 1.24 1.84 1.24 1.07 1.83 2.8 1.3 3.48.99.11-.77.42-1.3.76-1.6-2.67-.3-5.48-1.34-5.48-5.95 0-1.31.47-2.38 1.24-3.22-.12-.31-.54-1.54.12-3.2 0 0 1.01-.32 3.3 1.23a11.45 11.45 0 0 1 6 0c2.29-1.55 3.3-1.23 3.3-1.23.66 1.66.24 2.89.12 3.2.77.84 1.24 1.91 1.24 3.22 0 4.62-2.81 5.65-5.49 5.95.43.37.82 1.1.82 2.22v3.29c0 .32.22.69.83.58A12 12 0 0 0 12 .5Z"/>
</svg>
